<svg t="1710000000000" viewBox="0 0 1024 1024" version="1.1" xmlns="http://www.w3.org/2000/svg">
  <path d="M512 0C229.230769 0 0 229.230769 0 512s229.230769 512 512 512 512-229.230769 512-512S794.769231 0 512 0z m245.74359 350.358974l-82.871795 391.384615c-5.128205 23.589744-18.358974 29.948718-37.948718 18.358974l-104.615385-77.74359-50.871795 49.230769c-5.128205 5.128205-9.846154 9.846154-20.102564 9.846154l7.384615-106.25641 193.230769-174.769231c8.205128-7.384615-1.025641-11.692308-12.410256-4.307692L405.333333 592.820513 303.589744 561.230769c-22.564103-7.384615-22.564103-22.564103 4.102564-33.230769l480-185.846154c22.564103-10.25641 42.153846 5.128205 34.769231 33.205128z" fill="#27A5E7"></path>
</svg>
