<svg viewBox="0 0 1024 1024" version="1.1" xmlns="http://www.w3.org/2000/svg">
  <path d="M941.1 318.2s-9.3-65.7-37.9-94.6c-36.3-38.2-77.1-38.4-95.8-40.6-133.8-9.8-334.5-9.8-334.5-9.8h-0.4s-200.7 0-334.5 9.8c-18.7 2.3-59.5 2.4-95.8 40.6-28.6 28.9-37.9 94.6-37.9 94.6S0 400.5 0 482.9v58.3c0 82.4 4.4 164.7 4.4 164.7s9.3 65.7 37.9 94.6c36.3 38.2 84 37 105.3 41 76.5 7.3 324.1 9.6 324.1 9.6s200.8-0.3 334.6-10.1c18.7-2.3 59.5-2.4 95.8-40.6 28.6-28.9 37.9-94.6 37.9-94.6s4.4-82.4 4.4-164.7v-58.3c-0.1-82.4-4.5-164.7-4.5-164.7z" fill="#FF0000"></path>
  <path d="M410.3 630.5l276.1-145.6-276.1-145.7z" fill="#FFFFFF"></path>
</svg>
